<svg width="52" height="52" viewBox="0 0 52 52" fill="none" xmlns="http://www.w3.org/2000/svg">
<path d="M43.4565 43.4565V44.1003C43.4603 45.1809 43.239 46.2504 42.8066 47.2408C42.1956 48.6552 41.1838 49.8596 39.8959 50.7053C38.6081 51.5511 37.1008 52.0012 35.5601 51.9999H7.90029C6.86279 52.0002 5.83539 51.7961 4.8768 51.3992C3.91821 51.0023 3.0472 50.4204 2.31355 49.6868C1.57988 48.9533 0.997952 48.0823 0.600985 47.1238C0.204019 46.1652 -0.000196747 45.1378 3.70254e-06 44.1003V16.4367C-0.00100157 15.3992 0.20271 14.3718 0.599465 13.4132C0.99622 12.4546 1.57822 11.5837 2.31212 10.8505C3.04602 10.1172 3.9174 9.53593 4.87632 9.14004C5.83523 8.74415 6.86285 8.54132 7.90029 8.54323H8.54332V26.6124L25.3882 43.4565H43.4565Z" fill="url(#paint0_linear_255_695)"/>
<g style="mix-blend-mode:multiply" opacity="0.2">
<path d="M43.4566 43.4565V44.1003C43.4605 45.1809 43.2391 46.2504 42.8067 47.2408H23.2578L5.36182 29.3448V8.95819C6.17961 8.6819 7.03721 8.5417 7.9004 8.54323H8.54344V26.6124L25.3883 43.4565H43.4566Z" fill="black"/>
</g>
<path d="M8.54102 8.54102V26.611L25.3851 43.4597H43.4596V8.54102H8.54102Z" fill="url(#paint1_linear_255_695)"/>
<path d="M52 6.05967V37.397C51.9997 38.5881 51.6486 39.7528 50.9905 40.7457C50.3324 41.7385 49.3966 42.5156 48.2997 42.9799C48.2102 43.0235 48.1177 43.0605 48.0228 43.0905C47.3552 43.3326 46.6505 43.4565 45.9403 43.4567H25.3883L8.54346 26.6125V6.05967C8.54323 5.26378 8.69991 4.47566 9.00441 3.74032C9.30885 3.00499 9.75531 2.33686 10.3181 1.77412C10.8809 1.21138 11.5491 0.765049 12.2844 0.46064C13.0199 0.156228 13.808 -0.000300231 14.6039 4.32318e-07H45.9403C46.7362 -0.000200002 47.5242 0.156401 48.2595 0.460858C48.9948 0.765316 49.6629 1.21166 50.2256 1.77439C50.7884 2.33712 51.2347 3.00521 51.5391 3.7405C51.8436 4.47578 52.0002 5.26385 52 6.05967Z" fill="url(#paint2_linear_255_695)"/>
<g style="mix-blend-mode:screen" opacity="0.5">
<path d="M51.9998 6.05967V29.8636C51.9998 29.8636 51.9517 29.3105 51.8892 28.3487C51.8266 27.3868 51.7305 26.0107 51.6603 24.3638C51.5902 22.7169 51.5223 20.7878 51.4803 18.7191C51.4384 16.6504 51.4254 14.4581 51.4117 12.2582C51.4185 11.1582 51.4254 10.0514 51.4323 8.97204C51.4254 7.90031 51.4803 6.79349 51.4666 5.81787C51.4519 4.89993 51.2119 3.99967 50.7679 3.19613C50.3633 2.46628 49.8122 1.82794 49.1492 1.32117C48.5713 0.893291 47.9228 0.570293 47.2331 0.366907C46.6858 0.21637 46.1224 0.132616 45.5549 0.117472C44.5938 0.0556852 44.0469 0 44.0469 0H45.9424C46.7381 0.000100155 47.5259 0.156924 48.2609 0.461515C48.9959 0.766102 49.6637 1.2125 50.2262 1.7752C50.7887 2.3379 51.2349 3.00589 51.5392 3.74103C51.8435 4.47616 52 5.26404 51.9998 6.05967Z" fill="white"/>
</g>
<g style="mix-blend-mode:multiply" opacity="0.2">
<path d="M48.2999 42.9799C48.2104 43.0235 48.1179 43.0605 48.023 43.0905C47.3554 43.3326 46.6507 43.4565 45.9405 43.4566H43.4569V43.6023L42.6178 43.6229L36.8693 43.761L25.3862 43.941H25.1925L25.0475 43.7961L16.5606 35.4396C13.7452 32.6379 10.9297 29.843 8.13479 27.0206L7.9624 26.8475V26.6125C7.97613 20.5864 8.01046 14.5687 8.10733 8.54335H8.54289V6.05967C8.54266 5.26378 8.69926 4.47566 9.00377 3.74032C9.30828 3.00499 9.75475 2.33686 10.3175 1.77412C10.8803 1.21138 11.5485 0.765049 12.2839 0.46064C13.0193 0.156228 13.8074 -0.000300231 14.6033 4.32318e-07H22.6005L17.8414 0.138831L15.4615 0.200617C14.688 0.176702 13.915 0.260654 13.1647 0.450052C11.6993 0.863992 10.4542 1.83483 9.69548 3.15494C9.32041 3.801 9.08036 4.51645 8.98989 5.25797C8.93527 6.03152 8.92604 6.80761 8.96243 7.58222C8.96929 7.90031 8.97616 8.22526 8.97616 8.54335C9.07303 14.4855 9.10736 20.4278 9.12109 26.37C11.8819 29.1099 14.6305 31.8634 17.3669 34.6303L25.596 42.9799L36.8716 43.1523L42.6201 43.2911L43.4591 43.3117L45.4935 43.3666C45.9686 43.3971 46.4454 43.3856 46.9184 43.3323C47.3911 43.2691 47.8547 43.1508 48.2999 42.9799Z" fill="black"/>
</g>
<g style="mix-blend-mode:multiply" opacity="0.2">
<path d="M32.3952 51.9999H7.90029C6.86278 52.0002 5.83539 51.7961 4.8768 51.3992C3.9182 51.0023 3.0472 50.4205 2.31354 49.6869C1.57988 48.9533 0.997944 48.0824 0.600981 47.1238C0.204016 46.1652 -0.000200302 45.1378 1.47421e-07 44.1003V18.4497C1.47421e-07 18.4497 0.0419531 19.4246 0.118233 21.1409C0.159424 22.8488 0.276896 25.2912 0.33258 28.2242C0.388264 31.1572 0.485139 34.5745 0.519465 38.2405C0.533195 40.0712 0.55379 41.9698 0.567521 43.8929C0.535469 45.7185 1.17809 47.4919 2.3723 48.8732C3.5478 50.2557 5.19927 51.1469 7.00019 51.3706C7.20767 51.4118 7.47083 51.4049 7.70577 51.4263L7.87893 51.4331L7.91325 51.44C7.91325 51.4331 7.94071 51.44 7.94071 51.44H8.39076C8.86827 51.4469 9.33816 51.4469 9.81567 51.4537C10.7562 51.4675 11.6906 51.4743 12.6037 51.4812C16.2697 51.5231 19.687 51.62 22.62 51.6681C25.5529 51.7161 27.9954 51.8412 29.714 51.8893C31.4204 51.9572 32.3952 51.9999 32.3952 51.9999Z" fill="black"/>
</g>
<g style="mix-blend-mode:screen" opacity="0.3">
<path d="M49.2333 6.05958V37.3969C49.2329 37.8307 49.1464 38.26 48.979 38.6602C48.8115 39.0603 48.5664 39.4232 48.2577 39.728L12.272 3.74296C12.5759 3.43309 12.9389 3.18715 13.3394 3.0196C13.7398 2.85205 14.1697 2.76629 14.6038 2.76734H45.9403C46.8132 2.76815 47.6503 3.11525 48.2677 3.73247C48.885 4.34969 49.2323 5.18661 49.2333 6.05958Z" fill="white"/>
</g>
<defs>
<linearGradient id="paint0_linear_255_695" x1="1.82518" y1="50.1747" x2="28.2903" y2="23.7096" gradientUnits="userSpaceOnUse">
<stop stop-color="#EE0979"/>
<stop offset="0.322" stop-color="#F32555"/>
<stop offset="1" stop-color="#FF6A00"/>
</linearGradient>
<linearGradient id="paint1_linear_255_695" x1="1.83663" y1="50.164" x2="28.3049" y2="23.6958" gradientUnits="userSpaceOnUse">
<stop stop-color="#EE0979"/>
<stop offset="0.322" stop-color="#F32555"/>
<stop offset="1" stop-color="#FF6A00"/>
</linearGradient>
<linearGradient id="paint2_linear_255_695" x1="18.1039" y1="33.8962" x2="59.2573" y2="-7.25714" gradientUnits="userSpaceOnUse">
<stop stop-color="#FCC400"/>
<stop offset="0.162" stop-color="#FBC000"/>
<stop offset="0.307" stop-color="#FBB500"/>
<stop offset="0.446" stop-color="#FBA300"/>
<stop offset="0.581" stop-color="#FA8900"/>
<stop offset="0.712" stop-color="#FA6800"/>
<stop offset="0.842" stop-color="#F93F00"/>
<stop offset="0.967" stop-color="#F81000"/>
<stop offset="1" stop-color="#F80300"/>
</linearGradient>
</defs>
</svg>
