<svg width="161" height="36" viewBox="0 0 161 36" fill="none" xmlns="http://www.w3.org/2000/svg">
<path d="M30.0853 30.0853V30.531C30.0879 31.2791 29.9347 32.0195 29.6354 32.7052C29.2124 33.6844 28.5118 34.5182 27.6203 35.1037C26.7287 35.6893 25.6851 36.0008 24.6185 35.9999H5.46943C4.75116 36.0001 4.03989 35.8588 3.37625 35.5841C2.71261 35.3093 2.1096 34.9065 1.60169 34.3986C1.09376 33.8907 0.69089 33.2878 0.416066 32.6242C0.141244 31.9606 -0.000136209 31.2493 2.5633e-06 30.531V11.3793C-0.000693398 10.661 0.140338 9.94971 0.415014 9.28605C0.689691 8.62245 1.09261 8.01953 1.6007 7.51188C2.10878 7.00422 2.71204 6.60182 3.37591 6.32774C4.03978 6.05366 4.7512 5.91324 5.46943 5.91456H5.91461V18.424L17.5764 30.0853H30.0853Z" fill="url(#paint0_linear_252_729)"/>
<g style="mix-blend-mode:multiply" opacity="0.2">
<path d="M30.0853 30.0853V30.531C30.0879 31.2791 29.9346 32.0196 29.6353 32.7052H16.1014L3.71191 20.3156V6.20184C4.27808 6.01057 4.8718 5.9135 5.4694 5.91456H5.91458V18.424L17.5764 30.0853H30.0853Z" fill="black"/>
</g>
<path d="M5.91309 5.91309V18.423L17.5744 30.0875H30.0875V5.91309H5.91309Z" fill="url(#paint1_linear_252_729)"/>
<path d="M35.9998 4.19516V25.8902C35.9996 26.7148 35.7565 27.5212 35.301 28.2085C34.8454 28.8959 34.1975 29.4339 33.4381 29.7553C33.3761 29.7855 33.3121 29.8111 33.2464 29.8319C32.7842 29.9995 32.2963 30.0853 31.8047 30.0854H17.5764L5.91455 18.4241V4.19516C5.91439 3.64416 6.02286 3.09853 6.23368 2.58945C6.44444 2.08038 6.75353 1.61783 7.14315 1.22824C7.53278 0.838646 7.99538 0.529649 8.50446 0.318904C9.01359 0.108158 9.55922 -0.000207852 10.1102 2.99297e-07H31.8047C32.3556 -0.000138463 32.9012 0.108278 33.4102 0.319055C33.9193 0.529834 34.3818 0.838842 34.7714 1.22843C35.161 1.61801 35.47 2.08053 35.6808 2.58958C35.8916 3.09862 36 3.64421 35.9998 4.19516Z" fill="url(#paint2_linear_252_729)"/>
<g style="mix-blend-mode:screen" opacity="0.5">
<path d="M36 4.19516V20.6748C36 20.6748 35.9667 20.2919 35.9234 19.626C35.8801 18.9601 35.8136 18.0074 35.765 16.8672C35.7164 15.7271 35.6694 14.3916 35.6404 12.9594C35.6113 11.5272 35.6024 10.0094 35.5929 8.48643C35.5976 7.72492 35.6024 6.95866 35.6071 6.21141C35.6024 5.46944 35.6404 4.70318 35.6309 4.02775C35.6207 3.39226 35.4545 2.769 35.1471 2.2127C34.867 1.70743 34.4855 1.2655 34.0265 0.914654C33.6265 0.618432 33.1775 0.394818 32.7 0.254013C32.3211 0.149795 31.931 0.0918113 31.5382 0.0813266C30.8728 0.0385513 30.4941 0 30.4941 0H31.8064C32.3573 6.93379e-05 32.9027 0.108639 33.4116 0.31951C33.9204 0.530378 34.3827 0.839423 34.7721 1.22899C35.1616 1.61855 35.4704 2.081 35.6811 2.58995C35.8918 3.09888 36.0002 3.64434 36 4.19516Z" fill="white"/>
</g>
<g style="mix-blend-mode:multiply" opacity="0.2">
<path d="M33.4381 29.7553C33.3762 29.7855 33.3121 29.8111 33.2464 29.8319C32.7843 29.9995 32.2964 30.0853 31.8048 30.0854H30.0853V30.1862L29.5044 30.2005L25.5247 30.2961L17.5748 30.4207H17.4407L17.3404 30.3204L11.4648 24.5351C9.51566 22.5954 7.56648 20.6605 5.63156 18.7066L5.51221 18.5867V18.4241C5.52171 14.2521 5.54548 10.086 5.61254 5.91462H5.91408V4.19516C5.91392 3.64416 6.02234 3.09853 6.23316 2.58945C6.44397 2.08038 6.75306 1.61783 7.14268 1.22824C7.53231 0.838646 7.99492 0.529649 8.50399 0.318904C9.01313 0.108158 9.55875 -0.000207852 10.1098 2.99297e-07H15.6463L12.3515 0.0961137L10.7039 0.138889C10.1684 0.122332 9.63321 0.180453 9.11378 0.311574C8.09932 0.598148 7.23732 1.27027 6.71203 2.18419C6.45237 2.63146 6.28618 3.12677 6.22354 3.64013C6.18573 4.17567 6.17934 4.71296 6.20453 5.24923C6.20929 5.46944 6.21404 5.69441 6.21404 5.91462C6.28111 10.0285 6.30487 14.1423 6.31438 18.2561C8.22569 20.153 10.1286 22.0593 12.023 23.9748L17.7201 29.7553L25.5263 29.8747L29.506 29.9708L30.0869 29.985L31.4953 30.0231C31.8242 30.0442 32.1543 30.0362 32.4818 29.9993C32.809 29.9555 33.1299 29.8737 33.4381 29.7553Z" fill="black"/>
</g>
<g style="mix-blend-mode:multiply" opacity="0.2">
<path d="M22.4275 36H5.46943C4.75116 36.0002 4.03989 35.8589 3.37624 35.5841C2.7126 35.3094 2.1096 34.9066 1.60168 34.3987C1.09376 33.8908 0.690884 33.2879 0.416064 32.6242C0.141242 31.9606 -0.000138671 31.2493 1.0206e-07 30.5311V12.7729C1.0206e-07 12.7729 0.0290444 13.4479 0.0818534 14.6361C0.11037 15.8185 0.191697 17.5094 0.230248 19.5399C0.268798 21.5704 0.335865 23.9363 0.359629 26.4743C0.369135 27.7417 0.383393 29.0561 0.392899 30.3874C0.370709 31.6514 0.815603 32.8791 1.64236 33.8354C2.45617 34.7925 3.59949 35.4095 4.84628 35.5643C4.98992 35.5928 5.17211 35.5881 5.33477 35.6029L5.45464 35.6076L5.47841 35.6124C5.47841 35.6076 5.49742 35.6124 5.49742 35.6124H5.80899C6.13957 35.6171 6.46488 35.6171 6.79546 35.6219C7.4466 35.6314 8.09351 35.6361 8.72563 35.6409C11.2636 35.6699 13.6295 35.737 15.66 35.7703C17.6905 35.8035 19.3814 35.8902 20.5712 35.9234C21.7526 35.9704 22.4275 36 22.4275 36Z" fill="black"/>
</g>
<g style="mix-blend-mode:screen" opacity="0.3">
<path d="M34.0847 4.19502V25.8901C34.0844 26.1904 34.0245 26.4876 33.9086 26.7647C33.7927 27.0417 33.623 27.2929 33.4093 27.5039L8.49609 2.59121C8.70654 2.37668 8.9578 2.20641 9.23505 2.09042C9.5123 1.97442 9.80993 1.91505 10.1105 1.91578H31.8049C32.4093 1.91634 32.9888 2.15664 33.4162 2.58394C33.8436 3.01125 34.084 3.59065 34.0847 4.19502Z" fill="white"/>
</g>
<path d="M47.5213 27.6C46.5213 27.6 45.6147 27.4 44.8013 27C43.988 26.6 43.2813 26.06 42.6813 25.38C42.0947 24.6867 41.6413 23.9133 41.3213 23.06C41.0013 22.1933 40.8413 21.3067 40.8413 20.4C40.8413 19.4533 41.008 18.5533 41.3413 17.7C41.688 16.8333 42.1613 16.0667 42.7613 15.4C43.3747 14.72 44.088 14.1867 44.9013 13.8C45.7147 13.4 46.6013 13.2 47.5613 13.2C48.5613 13.2 49.468 13.4067 50.2813 13.82C51.0947 14.2333 51.7947 14.7867 52.3813 15.48C52.968 16.1733 53.4213 16.9467 53.7413 17.8C54.0613 18.6533 54.2213 19.5267 54.2213 20.42C54.2213 21.3667 54.0547 22.2733 53.7213 23.14C53.388 23.9933 52.9147 24.76 52.3013 25.44C51.7013 26.1067 50.9947 26.6333 50.1813 27.02C49.368 27.4067 48.4813 27.6 47.5213 27.6ZM42.6613 20.4C42.6613 21.12 42.7747 21.82 43.0013 22.5C43.2413 23.1667 43.5747 23.76 44.0013 24.28C44.428 24.8 44.9413 25.2133 45.5413 25.52C46.1413 25.8267 46.808 25.98 47.5413 25.98C48.3013 25.98 48.9813 25.82 49.5813 25.5C50.1813 25.18 50.688 24.7533 51.1013 24.22C51.528 23.6867 51.848 23.0867 52.0613 22.42C52.288 21.7533 52.4013 21.08 52.4013 20.4C52.4013 19.68 52.2813 18.9867 52.0413 18.32C51.8147 17.6533 51.4813 17.06 51.0413 16.54C50.6147 16.0067 50.1013 15.5933 49.5013 15.3C48.9147 14.9933 48.2613 14.84 47.5413 14.84C46.7813 14.84 46.1013 15 45.5013 15.32C44.9013 15.6267 44.388 16.0467 43.9613 16.58C43.548 17.1133 43.228 17.7133 43.0013 18.38C42.7747 19.0333 42.6613 19.7067 42.6613 20.4ZM65.5023 27.5H63.7423V21.66C63.7423 20.5933 63.5489 19.7933 63.1623 19.26C62.7889 18.7267 62.2489 18.46 61.5423 18.46C61.0889 18.46 60.6289 18.58 60.1623 18.82C59.7089 19.06 59.3089 19.3867 58.9623 19.8C58.6156 20.2 58.3623 20.6667 58.2023 21.2V27.5H56.4423V12.9H58.2023V19.3C58.6156 18.5533 59.1756 17.9667 59.8823 17.54C60.6023 17.1 61.3756 16.88 62.2023 16.88C62.8289 16.88 63.3489 16.9933 63.7623 17.22C64.1889 17.4333 64.5289 17.74 64.7823 18.14C65.0356 18.54 65.2156 19.0067 65.3223 19.54C65.4423 20.06 65.5023 20.6333 65.5023 21.26V27.5ZM80.7991 27.5V16.66L76.1191 25H75.0191L70.3191 16.66V27.5H68.5191V13.3H70.4191L75.5591 22.52L80.7191 13.3H82.5991V27.5H80.7991ZM86.1996 30.34C86.3729 30.3533 86.5463 30.3667 86.7196 30.38C86.8929 30.4067 87.0263 30.42 87.1196 30.42C87.3329 30.42 87.5196 30.3467 87.6796 30.2C87.8396 30.0533 88.0129 29.7667 88.1996 29.34C88.3996 28.9267 88.6529 28.3133 88.9596 27.5L84.5396 17.06H86.3996L89.9196 25.72L93.0996 17.06H94.8396L89.7596 30.24C89.6396 30.5467 89.4596 30.8333 89.2196 31.1C88.9929 31.38 88.6996 31.6 88.3396 31.76C87.9796 31.92 87.5463 32 87.0396 32C86.9196 32 86.7929 31.9933 86.6596 31.98C86.5396 31.9667 86.3863 31.94 86.1996 31.9V30.34Z" fill="url(#paint3_linear_252_729)"/>
<path d="M105.698 15.72H101.158V27.5H98.418V15.72H93.878V13.3H105.698V15.72ZM109.721 13.3H112.521L117.741 27.5H114.901L113.581 23.96H108.621L107.321 27.5H104.481L109.721 13.3ZM113.081 22.02L111.121 16.16L109.081 22.02H113.081ZM126.783 17.02C126.689 16.9267 126.516 16.8 126.263 16.64C126.023 16.48 125.723 16.3267 125.363 16.18C125.016 16.0333 124.636 15.9067 124.223 15.8C123.809 15.68 123.389 15.62 122.963 15.62C122.216 15.62 121.649 15.76 121.263 16.04C120.889 16.32 120.703 16.7133 120.703 17.22C120.703 17.6067 120.823 17.9133 121.063 18.14C121.303 18.3667 121.663 18.56 122.143 18.72C122.623 18.88 123.223 19.0533 123.943 19.24C124.876 19.4667 125.683 19.7467 126.363 20.08C127.056 20.4 127.583 20.8267 127.943 21.36C128.316 21.88 128.503 22.5733 128.503 23.44C128.503 24.2 128.363 24.8533 128.083 25.4C127.803 25.9333 127.416 26.3667 126.923 26.7C126.429 27.0333 125.869 27.28 125.243 27.44C124.616 27.5867 123.949 27.66 123.243 27.66C122.536 27.66 121.829 27.5867 121.123 27.44C120.416 27.2933 119.736 27.0867 119.083 26.82C118.429 26.54 117.829 26.2067 117.283 25.82L118.503 23.44C118.623 23.56 118.836 23.72 119.143 23.92C119.449 24.1067 119.823 24.3 120.263 24.5C120.703 24.6867 121.183 24.8467 121.703 24.98C122.223 25.1133 122.749 25.18 123.283 25.18C124.029 25.18 124.596 25.0533 124.983 24.8C125.369 24.5467 125.563 24.1867 125.563 23.72C125.563 23.2933 125.409 22.96 125.103 22.72C124.796 22.48 124.369 22.2733 123.823 22.1C123.276 21.9133 122.629 21.7133 121.883 21.5C120.989 21.2467 120.243 20.9667 119.643 20.66C119.043 20.34 118.596 19.94 118.303 19.46C118.009 18.98 117.863 18.38 117.863 17.66C117.863 16.6867 118.089 15.8733 118.543 15.22C119.009 14.5533 119.636 14.0533 120.423 13.72C121.209 13.3733 122.083 13.2 123.043 13.2C123.709 13.2 124.336 13.2733 124.923 13.42C125.523 13.5667 126.083 13.76 126.603 14C127.123 14.24 127.589 14.5 128.003 14.78L126.783 17.02ZM129.788 27.5V13.32H132.548V20.06L138.508 13.3H141.548L136.108 19.6L141.888 27.5H138.768L134.348 21.38L132.548 23.26V27.5H129.788ZM150.827 17.02C150.734 16.9267 150.56 16.8 150.307 16.64C150.067 16.48 149.767 16.3267 149.407 16.18C149.06 16.0333 148.68 15.9067 148.267 15.8C147.854 15.68 147.434 15.62 147.007 15.62C146.26 15.62 145.694 15.76 145.307 16.04C144.934 16.32 144.747 16.7133 144.747 17.22C144.747 17.6067 144.867 17.9133 145.107 18.14C145.347 18.3667 145.707 18.56 146.187 18.72C146.667 18.88 147.267 19.0533 147.987 19.24C148.92 19.4667 149.727 19.7467 150.407 20.08C151.1 20.4 151.627 20.8267 151.987 21.36C152.36 21.88 152.547 22.5733 152.547 23.44C152.547 24.2 152.407 24.8533 152.127 25.4C151.847 25.9333 151.46 26.3667 150.967 26.7C150.474 27.0333 149.914 27.28 149.287 27.44C148.66 27.5867 147.994 27.66 147.287 27.66C146.58 27.66 145.874 27.5867 145.167 27.44C144.46 27.2933 143.78 27.0867 143.127 26.82C142.474 26.54 141.874 26.2067 141.327 25.82L142.547 23.44C142.667 23.56 142.88 23.72 143.187 23.92C143.494 24.1067 143.867 24.3 144.307 24.5C144.747 24.6867 145.227 24.8467 145.747 24.98C146.267 25.1133 146.794 25.18 147.327 25.18C148.074 25.18 148.64 25.0533 149.027 24.8C149.414 24.5467 149.607 24.1867 149.607 23.72C149.607 23.2933 149.454 22.96 149.147 22.72C148.84 22.48 148.414 22.2733 147.867 22.1C147.32 21.9133 146.674 21.7133 145.927 21.5C145.034 21.2467 144.287 20.9667 143.687 20.66C143.087 20.34 142.64 19.94 142.347 19.46C142.054 18.98 141.907 18.38 141.907 17.66C141.907 16.6867 142.134 15.8733 142.587 15.22C143.054 14.5533 143.68 14.0533 144.467 13.72C145.254 13.3733 146.127 13.2 147.087 13.2C147.754 13.2 148.38 13.2733 148.967 13.42C149.567 13.5667 150.127 13.76 150.647 14C151.167 14.24 151.634 14.5 152.047 14.78L150.827 17.02ZM154.789 20.024V7.424H158.541V20.024H154.789ZM154.789 27.5V23.272H158.541V27.5H154.789Z" fill="url(#paint4_linear_252_729)"/>
<defs>
<linearGradient id="paint0_linear_252_729" x1="1.26358" y1="34.7363" x2="19.5856" y2="16.4144" gradientUnits="userSpaceOnUse">
<stop stop-color="#EE0979"/>
<stop offset="0.322" stop-color="#F32555"/>
<stop offset="1" stop-color="#FF6A00"/>
</linearGradient>
<linearGradient id="paint1_linear_252_729" x1="1.27159" y1="34.729" x2="20.4477" y2="33.7893" gradientUnits="userSpaceOnUse">
<stop stop-color="#EE0979"/>
<stop offset="0.667187" stop-color="#F32555"/>
<stop offset="1" stop-color="#FF6A00"/>
</linearGradient>
<linearGradient id="paint2_linear_252_729" x1="12.5333" y1="23.4666" x2="41.0242" y2="-5.02417" gradientUnits="userSpaceOnUse">
<stop stop-color="#FCC400"/>
<stop offset="0.162" stop-color="#FBC000"/>
<stop offset="0.307" stop-color="#FBB500"/>
<stop offset="0.446" stop-color="#FBA300"/>
<stop offset="0.581" stop-color="#FA8900"/>
<stop offset="0.712" stop-color="#FA6800"/>
<stop offset="0.842" stop-color="#F93F00"/>
<stop offset="0.967" stop-color="#F81000"/>
<stop offset="1" stop-color="#F80300"/>
</linearGradient>
<linearGradient id="paint3_linear_252_729" x1="45.082" y1="33.114" x2="119.982" y2="19.8584" gradientUnits="userSpaceOnUse">
<stop stop-color="#EE0979"/>
<stop offset="0.322" stop-color="#F32555"/>
<stop offset="0.676323" stop-color="#FF6A00"/>
</linearGradient>
<linearGradient id="paint4_linear_252_729" x1="66.62" y1="27.24" x2="82.4859" y2="-30.9349" gradientUnits="userSpaceOnUse">
<stop stop-color="#FCC400"/>
<stop offset="0.162" stop-color="#FBC000"/>
<stop offset="0.307" stop-color="#FBB500"/>
<stop offset="0.446" stop-color="#FBA300"/>
<stop offset="0.581" stop-color="#FA8900"/>
<stop offset="0.712" stop-color="#FA6800"/>
<stop offset="0.842" stop-color="#F93F00"/>
<stop offset="0.967" stop-color="#F81000"/>
<stop offset="1" stop-color="#F80300"/>
</linearGradient>
</defs>
</svg>
