<svg width="121" height="85" viewBox="0 0 121 85" fill="none" xmlns="http://www.w3.org/2000/svg">
<path d="M77.9565 43.4565V44.1003C77.9603 45.1809 77.739 46.2504 77.3066 47.2408C76.6956 48.6552 75.6838 49.8596 74.3959 50.7053C73.1081 51.5511 71.6008 52.0012 70.0601 51.9999H42.4003C41.3628 52.0002 40.3354 51.7961 39.3768 51.3992C38.4182 51.0023 37.5472 50.4204 36.8135 49.6868C36.0799 48.9533 35.498 48.0823 35.101 47.1238C34.704 46.1652 34.4998 45.1378 34.5 44.1003V16.4367C34.499 15.3992 34.7027 14.3718 35.0995 13.4132C35.4962 12.4546 36.0782 11.5837 36.8121 10.8505C37.546 10.1172 38.4174 9.53593 39.3763 9.14004C40.3352 8.74415 41.3629 8.54132 42.4003 8.54323H43.0433V26.6124L59.8882 43.4565H77.9565Z" fill="url(#paint0_linear_252_712)"/>
<g style="mix-blend-mode:multiply" opacity="0.2">
<path d="M77.9566 43.4565V44.1003C77.9605 45.1809 77.7391 46.2504 77.3067 47.2408H57.7578L39.8618 29.3448V8.95819C40.6796 8.6819 41.5372 8.5417 42.4004 8.54323H43.0434V26.6124L59.8883 43.4565H77.9566Z" fill="black"/>
</g>
<path d="M43.041 8.54102V26.611L59.8851 43.4597H77.9596V8.54102H43.041Z" fill="url(#paint1_linear_252_712)"/>
<path d="M86.5 6.05967V37.397C86.4997 38.5881 86.1486 39.7528 85.4905 40.7457C84.8324 41.7385 83.8966 42.5156 82.7997 42.9799C82.7102 43.0235 82.6177 43.0605 82.5228 43.0905C81.8552 43.3326 81.1505 43.4565 80.4403 43.4566H59.8883L43.0435 26.6125V6.05967C43.0432 5.26378 43.1999 4.47566 43.5044 3.74032C43.8088 3.00499 44.2553 2.33686 44.8181 1.77412C45.3809 1.21138 46.0491 0.765049 46.7844 0.46064C47.5199 0.156228 48.308 -0.000300231 49.1039 4.32318e-07H80.4403C81.2362 -0.000200002 82.0242 0.156401 82.7595 0.460858C83.4948 0.765316 84.1628 1.21166 84.7256 1.77439C85.2884 2.33712 85.7347 3.00521 86.0391 3.7405C86.3436 4.47578 86.5002 5.26385 86.5 6.05967Z" fill="url(#paint2_linear_252_712)"/>
<g style="mix-blend-mode:screen" opacity="0.5">
<path d="M86.4998 6.05967V29.8636C86.4998 29.8636 86.4517 29.3105 86.3892 28.3487C86.3266 27.3868 86.2305 26.0107 86.1603 24.3638C86.0902 22.7169 86.0223 20.7878 85.9803 18.7191C85.9384 16.6504 85.9254 14.4581 85.9117 12.2582C85.9185 11.1582 85.9254 10.0514 85.9323 8.97204C85.9254 7.90031 85.9803 6.79349 85.9666 5.81787C85.9519 4.89993 85.7119 3.99967 85.2679 3.19613C84.8633 2.46628 84.3122 1.82794 83.6492 1.32117C83.0713 0.893291 82.4228 0.570293 81.7331 0.366907C81.1858 0.21637 80.6224 0.132616 80.0549 0.117472C79.0938 0.0556852 78.5469 0 78.5469 0H80.4424C81.2381 0.000100155 82.0259 0.156924 82.7609 0.461515C83.4959 0.766102 84.1637 1.2125 84.7262 1.7752C85.2887 2.3379 85.7349 3.00589 86.0392 3.74103C86.3435 4.47616 86.5 5.26404 86.4998 6.05967Z" fill="white"/>
</g>
<g style="mix-blend-mode:multiply" opacity="0.2">
<path d="M82.7999 42.9799C82.7104 43.0235 82.6179 43.0605 82.523 43.0905C81.8554 43.3326 81.1507 43.4565 80.4405 43.4566H77.9569V43.6023L77.1178 43.6229L71.3693 43.761L59.8862 43.941H59.6925L59.5475 43.7961L51.0606 35.4396C48.2452 32.6379 45.4297 29.843 42.6348 27.0206L42.4624 26.8475V26.6125C42.4761 20.5864 42.5105 14.5687 42.6073 8.54335H43.0429V6.05967C43.0427 5.26378 43.1993 4.47566 43.5038 3.74032C43.8083 3.00499 44.2547 2.33686 44.8175 1.77412C45.3803 1.21138 46.0485 0.765049 46.7839 0.46064C47.5193 0.156228 48.3074 -0.000300231 49.1033 4.32318e-07H57.1005L52.3414 0.138831L49.9615 0.200617C49.188 0.176702 48.415 0.260654 47.6647 0.450052C46.1993 0.863992 44.9542 1.83483 44.1955 3.15494C43.8204 3.801 43.5804 4.51645 43.4899 5.25797C43.4353 6.03152 43.426 6.80761 43.4624 7.58222C43.4693 7.90031 43.4762 8.22526 43.4762 8.54335C43.573 14.4855 43.6074 20.4278 43.6211 26.37C46.3819 29.1099 49.1305 31.8634 51.8669 34.6303L60.096 42.9799L71.3716 43.1523L77.1201 43.2911L77.9591 43.3117L79.9935 43.3666C80.4686 43.3971 80.9454 43.3856 81.4184 43.3323C81.8911 43.2691 82.3547 43.1508 82.7999 42.9799Z" fill="black"/>
</g>
<g style="mix-blend-mode:multiply" opacity="0.2">
<path d="M66.8952 51.9999H42.4003C41.3628 52.0002 40.3354 51.7961 39.3768 51.3992C38.4182 51.0023 37.5472 50.4205 36.8135 49.6869C36.0799 48.9533 35.4979 48.0824 35.101 47.1238C34.704 46.1652 34.4998 45.1378 34.5 44.1003V18.4497C34.5 18.4497 34.542 19.4246 34.6182 21.1409C34.6594 22.8488 34.7769 25.2912 34.8326 28.2242C34.8883 31.1572 34.9851 34.5745 35.0195 38.2405C35.0332 40.0712 35.0538 41.9698 35.0675 43.8929C35.0355 45.7185 35.6781 47.4919 36.8723 48.8732C38.0478 50.2557 39.6993 51.1469 41.5002 51.3706C41.7077 51.4118 41.9708 51.4049 42.2058 51.4263L42.3789 51.4331L42.4133 51.44C42.4133 51.4331 42.4407 51.44 42.4407 51.44H42.8908C43.3683 51.4469 43.8382 51.4469 44.3157 51.4537C45.2562 51.4675 46.1906 51.4743 47.1037 51.4812C50.7697 51.5231 54.187 51.62 57.12 51.6681C60.0529 51.7161 62.4954 51.8412 64.214 51.8893C65.9204 51.9572 66.8952 51.9999 66.8952 51.9999Z" fill="black"/>
</g>
<g style="mix-blend-mode:screen" opacity="0.3">
<path d="M83.7333 6.05958V37.3969C83.7329 37.8307 83.6464 38.26 83.479 38.6602C83.3115 39.0603 83.0664 39.4232 82.7577 39.728L46.772 3.74296C47.0759 3.43309 47.4389 3.18715 47.8394 3.0196C48.2398 2.85205 48.6697 2.76629 49.1038 2.76734H80.4403C81.3132 2.76815 82.1503 3.11525 82.7677 3.73247C83.385 4.34969 83.7323 5.18661 83.7333 6.05958Z" fill="white"/>
</g>
<path d="M7.52133 78.1C6.52133 78.1 5.61466 77.9 4.80133 77.5C3.988 77.1 3.28133 76.56 2.68133 75.88C2.09466 75.1867 1.64133 74.4133 1.32133 73.56C1.00133 72.6933 0.841329 71.8067 0.841329 70.9C0.841329 69.9533 1.008 69.0533 1.34133 68.2C1.688 67.3333 2.16133 66.5667 2.76133 65.9C3.37466 65.22 4.088 64.6867 4.90133 64.3C5.71466 63.9 6.60133 63.7 7.56133 63.7C8.56133 63.7 9.468 63.9067 10.2813 64.32C11.0947 64.7333 11.7947 65.2867 12.3813 65.98C12.968 66.6733 13.4213 67.4467 13.7413 68.3C14.0613 69.1533 14.2213 70.0267 14.2213 70.92C14.2213 71.8667 14.0547 72.7733 13.7213 73.64C13.388 74.4933 12.9147 75.26 12.3013 75.94C11.7013 76.6067 10.9947 77.1333 10.1813 77.52C9.368 77.9067 8.48133 78.1 7.52133 78.1ZM2.66133 70.9C2.66133 71.62 2.77466 72.32 3.00133 73C3.24133 73.6667 3.57466 74.26 4.00133 74.78C4.428 75.3 4.94133 75.7133 5.54133 76.02C6.14133 76.3267 6.808 76.48 7.54133 76.48C8.30133 76.48 8.98133 76.32 9.58133 76C10.1813 75.68 10.688 75.2533 11.1013 74.72C11.528 74.1867 11.848 73.5867 12.0613 72.92C12.288 72.2533 12.4013 71.58 12.4013 70.9C12.4013 70.18 12.2813 69.4867 12.0413 68.82C11.8147 68.1533 11.4813 67.56 11.0413 67.04C10.6147 66.5067 10.1013 66.0933 9.50133 65.8C8.91466 65.4933 8.26133 65.34 7.54133 65.34C6.78133 65.34 6.10133 65.5 5.50133 65.82C4.90133 66.1267 4.388 66.5467 3.96133 67.08C3.548 67.6133 3.228 68.2133 3.00133 68.88C2.77466 69.5333 2.66133 70.2067 2.66133 70.9ZM25.5023 78H23.7423V72.16C23.7423 71.0933 23.5489 70.2933 23.1623 69.76C22.7889 69.2267 22.2489 68.96 21.5423 68.96C21.0889 68.96 20.6289 69.08 20.1623 69.32C19.7089 69.56 19.3089 69.8867 18.9623 70.3C18.6156 70.7 18.3623 71.1667 18.2023 71.7V78H16.4423V63.4H18.2023V69.8C18.6156 69.0533 19.1756 68.4667 19.8823 68.04C20.6023 67.6 21.3756 67.38 22.2023 67.38C22.8289 67.38 23.3489 67.4933 23.7623 67.72C24.1889 67.9333 24.5289 68.24 24.7823 68.64C25.0356 69.04 25.2156 69.5067 25.3223 70.04C25.4423 70.56 25.5023 71.1333 25.5023 71.76V78ZM40.7991 78V67.16L36.1191 75.5H35.0191L30.3191 67.16V78H28.5191V63.8H30.4191L35.5591 73.02L40.7191 63.8H42.5991V78H40.7991ZM46.1996 80.84C46.3729 80.8533 46.5463 80.8667 46.7196 80.88C46.8929 80.9067 47.0263 80.92 47.1196 80.92C47.3329 80.92 47.5196 80.8467 47.6796 80.7C47.8396 80.5533 48.0129 80.2667 48.1996 79.84C48.3996 79.4267 48.6529 78.8133 48.9596 78L44.5396 67.56H46.3996L49.9196 76.22L53.0996 67.56H54.8396L49.7596 80.74C49.6396 81.0467 49.4596 81.3333 49.2196 81.6C48.9929 81.88 48.6996 82.1 48.3396 82.26C47.9796 82.42 47.5463 82.5 47.0396 82.5C46.9196 82.5 46.7929 82.4933 46.6596 82.48C46.5396 82.4667 46.3863 82.44 46.1996 82.4V80.84Z" fill="url(#paint3_linear_252_712)"/>
<path d="M65.698 66.22H61.158V78H58.418V66.22H53.878V63.8H65.698V66.22ZM69.7209 63.8H72.5209L77.7409 78H74.9009L73.5809 74.46H68.6209L67.3209 78H64.4809L69.7209 63.8ZM73.0809 72.52L71.1209 66.66L69.0809 72.52H73.0809ZM86.7826 67.52C86.6892 67.4267 86.5159 67.3 86.2626 67.14C86.0226 66.98 85.7226 66.8267 85.3626 66.68C85.0159 66.5333 84.6359 66.4067 84.2226 66.3C83.8092 66.18 83.3892 66.12 82.9626 66.12C82.2159 66.12 81.6492 66.26 81.2626 66.54C80.8892 66.82 80.7026 67.2133 80.7026 67.72C80.7026 68.1067 80.8226 68.4133 81.0626 68.64C81.3026 68.8667 81.6626 69.06 82.1426 69.22C82.6226 69.38 83.2226 69.5533 83.9426 69.74C84.8759 69.9667 85.6826 70.2467 86.3626 70.58C87.0559 70.9 87.5826 71.3267 87.9426 71.86C88.3159 72.38 88.5026 73.0733 88.5026 73.94C88.5026 74.7 88.3626 75.3533 88.0826 75.9C87.8026 76.4333 87.4159 76.8667 86.9226 77.2C86.4292 77.5333 85.8692 77.78 85.2426 77.94C84.6159 78.0867 83.9492 78.16 83.2426 78.16C82.5359 78.16 81.8292 78.0867 81.1226 77.94C80.4159 77.7933 79.7359 77.5867 79.0826 77.32C78.4292 77.04 77.8292 76.7067 77.2826 76.32L78.5026 73.94C78.6226 74.06 78.8359 74.22 79.1426 74.42C79.4492 74.6067 79.8226 74.8 80.2626 75C80.7026 75.1867 81.1826 75.3467 81.7026 75.48C82.2226 75.6133 82.7492 75.68 83.2826 75.68C84.0292 75.68 84.5959 75.5533 84.9826 75.3C85.3692 75.0467 85.5626 74.6867 85.5626 74.22C85.5626 73.7933 85.4092 73.46 85.1026 73.22C84.7959 72.98 84.3692 72.7733 83.8226 72.6C83.2759 72.4133 82.6292 72.2133 81.8826 72C80.9892 71.7467 80.2426 71.4667 79.6426 71.16C79.0426 70.84 78.5959 70.44 78.3026 69.96C78.0092 69.48 77.8626 68.88 77.8626 68.16C77.8626 67.1867 78.0892 66.3733 78.5426 65.72C79.0092 65.0533 79.6359 64.5533 80.4226 64.22C81.2092 63.8733 82.0826 63.7 83.0426 63.7C83.7092 63.7 84.3359 63.7733 84.9226 63.92C85.5226 64.0667 86.0826 64.26 86.6026 64.5C87.1226 64.74 87.5892 65 88.0026 65.28L86.7826 67.52ZM89.7882 78V63.82H92.5482V70.56L98.5082 63.8H101.548L96.1082 70.1L101.888 78H98.7682L94.3482 71.88L92.5482 73.76V78H89.7882ZM110.827 67.52C110.734 67.4267 110.56 67.3 110.307 67.14C110.067 66.98 109.767 66.8267 109.407 66.68C109.06 66.5333 108.68 66.4067 108.267 66.3C107.854 66.18 107.434 66.12 107.007 66.12C106.26 66.12 105.694 66.26 105.307 66.54C104.934 66.82 104.747 67.2133 104.747 67.72C104.747 68.1067 104.867 68.4133 105.107 68.64C105.347 68.8667 105.707 69.06 106.187 69.22C106.667 69.38 107.267 69.5533 107.987 69.74C108.92 69.9667 109.727 70.2467 110.407 70.58C111.1 70.9 111.627 71.3267 111.987 71.86C112.36 72.38 112.547 73.0733 112.547 73.94C112.547 74.7 112.407 75.3533 112.127 75.9C111.847 76.4333 111.46 76.8667 110.967 77.2C110.474 77.5333 109.914 77.78 109.287 77.94C108.66 78.0867 107.994 78.16 107.287 78.16C106.58 78.16 105.874 78.0867 105.167 77.94C104.46 77.7933 103.78 77.5867 103.127 77.32C102.474 77.04 101.874 76.7067 101.327 76.32L102.547 73.94C102.667 74.06 102.88 74.22 103.187 74.42C103.494 74.6067 103.867 74.8 104.307 75C104.747 75.1867 105.227 75.3467 105.747 75.48C106.267 75.6133 106.794 75.68 107.327 75.68C108.074 75.68 108.64 75.5533 109.027 75.3C109.414 75.0467 109.607 74.6867 109.607 74.22C109.607 73.7933 109.454 73.46 109.147 73.22C108.84 72.98 108.414 72.7733 107.867 72.6C107.32 72.4133 106.674 72.2133 105.927 72C105.034 71.7467 104.287 71.4667 103.687 71.16C103.087 70.84 102.64 70.44 102.347 69.96C102.054 69.48 101.907 68.88 101.907 68.16C101.907 67.1867 102.134 66.3733 102.587 65.72C103.054 65.0533 103.68 64.5533 104.467 64.22C105.254 63.8733 106.127 63.7 107.087 63.7C107.754 63.7 108.38 63.7733 108.967 63.92C109.567 64.0667 110.127 64.26 110.647 64.5C111.167 64.74 111.634 65 112.047 65.28L110.827 67.52ZM114.789 70.524V57.924H118.541V70.524H114.789ZM114.789 78V73.772H118.541V78H114.789Z" fill="url(#paint4_linear_252_712)"/>
<defs>
<linearGradient id="paint0_linear_252_712" x1="36.3252" y1="50.1747" x2="62.7903" y2="23.7096" gradientUnits="userSpaceOnUse">
<stop stop-color="#EE0979"/>
<stop offset="0.322" stop-color="#F32555"/>
<stop offset="1" stop-color="#FF6A00"/>
</linearGradient>
<linearGradient id="paint1_linear_252_712" x1="36.3366" y1="50.164" x2="62.8049" y2="23.6958" gradientUnits="userSpaceOnUse">
<stop stop-color="#EE0979"/>
<stop offset="0.322" stop-color="#F32555"/>
<stop offset="1" stop-color="#FF6A00"/>
</linearGradient>
<linearGradient id="paint2_linear_252_712" x1="52.6039" y1="33.8962" x2="93.7573" y2="-7.25714" gradientUnits="userSpaceOnUse">
<stop stop-color="#FCC400"/>
<stop offset="0.162" stop-color="#FBC000"/>
<stop offset="0.307" stop-color="#FBB500"/>
<stop offset="0.446" stop-color="#FBA300"/>
<stop offset="0.581" stop-color="#FA8900"/>
<stop offset="0.712" stop-color="#FA6800"/>
<stop offset="0.842" stop-color="#F93F00"/>
<stop offset="0.967" stop-color="#F81000"/>
<stop offset="1" stop-color="#F80300"/>
</linearGradient>
<linearGradient id="paint3_linear_252_712" x1="5.082" y1="83.614" x2="79.9817" y2="70.3584" gradientUnits="userSpaceOnUse">
<stop stop-color="#EE0979"/>
<stop offset="0.322" stop-color="#F32555"/>
<stop offset="0.676323" stop-color="#FF6A00"/>
</linearGradient>
<linearGradient id="paint4_linear_252_712" x1="26.62" y1="77.74" x2="42.4859" y2="19.5651" gradientUnits="userSpaceOnUse">
<stop stop-color="#FCC400"/>
<stop offset="0.162" stop-color="#FBC000"/>
<stop offset="0.307" stop-color="#FBB500"/>
<stop offset="0.446" stop-color="#FBA300"/>
<stop offset="0.581" stop-color="#FA8900"/>
<stop offset="0.712" stop-color="#FA6800"/>
<stop offset="0.842" stop-color="#F93F00"/>
<stop offset="0.967" stop-color="#F81000"/>
<stop offset="1" stop-color="#F80300"/>
</linearGradient>
</defs>
</svg>
